<?xml version="1.0" encoding="utf-8"?>
<!-- Generator: Adobe Illustrator 16.0.0, SVG Export Plug-In . SVG Version: 6.00 Build 0)  -->
<!DOCTYPE svg PUBLIC "-//W3C//DTD SVG 1.1//EN" "http://www.w3.org/Graphics/SVG/1.1/DTD/svg11.dtd">
<svg version="1.1" id="Layer_1" xmlns="http://www.w3.org/2000/svg" xmlns:xlink="http://www.w3.org/1999/xlink" x="0px" y="0px"
	 width="50px" height="50px" viewBox="0 0 50 50" enable-background="new 0 0 50 50" xml:space="preserve">
<g>
	<path fill="#FFFFFF" d="M10.944,19.158"/>
	<path fill="#FFFFFF" d="M10.339,19.158"/>
</g>
<path fill="#010202" d="M18.614,28.089V19.19h-2.573v2.136v8.31c0,1.762,2.358,1.691,3.692,1.292v-2.112
	C18.757,28.817,18.639,28.465,18.614,28.089z"/>
<path fill="#010202" d="M30.508,20.942v5.923c0,1.301-1.342,2.006-2.77,2.103c-1.43-0.097-2.77-0.803-2.77-2.103v-5.923
	c0-1.864-2.27-2.265-3.784-1.628v2.148c1.171,0,1.147,0.684,1.147,0.684c0,1.49,0.038,2.985,0.004,4.474
	c-0.017,0.726,0.031,1.476,0.329,2.158c0.339,0.775,4.21,2.544,4.312,2.544c0.055,0,1.486,0,1.525,0c0.1,0,3.972-1.769,4.309-2.544
	c0.299-0.683,0.346-1.433,0.33-2.158c-0.033-1.488,0.003-2.983,0.003-4.474c0,0-0.023-0.684,1.148-0.684v-2.148
	C32.778,18.677,30.508,19.079,30.508,20.942z"/>
</svg>
